<?xml version="1.0" encoding="UTF-8" standalone="no"?>
<!DOCTYPE svg PUBLIC "-//W3C//DTD SVG 1.1//EN" "http://www.w3.org/Graphics/SVG/1.1/DTD/svg11.dtd">
<svg width="100%" height="100%" viewBox="0 0 192 46" version="1.1" xmlns="http://www.w3.org/2000/svg" xmlns:xlink="http://www.w3.org/1999/xlink" xml:space="preserve" xmlns:serif="http://www.serif.com/" style="fill-rule:evenodd;clip-rule:evenodd;stroke-linejoin:round;stroke-miterlimit:2;">
    <g transform="matrix(0.37452,0,0,0.37334,-32.8623,-29.0571)">
        <path d="M203.916,201.042L228.559,179.92L158.151,77.83L87.745,179.92L112.387,201.042L121.278,189.674L112.207,178.732L126.196,164.742L137.167,173.785C140.207,172.05 143.48,170.681 146.931,169.736L148.254,155.585L168.038,155.585L169.401,169.736C172.852,170.681 176.125,172.05 179.165,173.785L179.165,173.799L190.106,164.728L204.097,178.717L195.059,189.682L203.916,201.042Z" style="fill:white;fill-rule:nonzero;"/>
        <path d="M288.404,158.203L302.134,126.118L315.913,158.203C315.913,158.203 310.358,153.544 302.155,153.544C293.977,153.544 288.404,158.203 288.404,158.203ZM324.063,177.179L336.239,177.179L307.948,114.51L296.489,114.51L268.288,177.179L280.285,177.179L280.321,177.094C284.063,168.348 292.66,162.675 302.174,162.675C311.676,162.675 320.265,168.334 324.014,177.065L324.063,177.179Z" style="fill:white;fill-rule:nonzero;"/>
        <path d="M552.566,158.203L566.296,126.118L580.075,158.203C580.075,158.203 574.52,153.544 566.317,153.544C558.139,153.544 552.566,158.203 552.566,158.203ZM588.226,177.179L600.401,177.179L572.11,114.51L560.651,114.51L532.45,177.179L544.447,177.179L544.483,177.094C548.226,168.348 556.822,162.675 566.336,162.675C575.838,162.675 584.427,168.334 588.176,177.065L588.226,177.179Z" style="fill:white;fill-rule:nonzero;"/>
        <path d="M345.997,177.179L345.997,114.51L357.636,114.51L357.636,167.331L390.402,167.331L390.402,177.179L345.997,177.179Z" style="fill:white;fill-rule:nonzero;"/>
        <path d="M413.053,167.331L428.272,167.331C432.986,167.331 437.06,166.436 440.492,164.645C443.924,162.855 446.58,160.348 448.46,157.125C450.34,153.902 451.28,150.142 451.28,145.845C451.28,141.488 450.34,137.713 448.46,134.519C446.58,131.327 443.924,128.834 440.492,127.044C437.06,125.253 432.986,124.358 428.272,124.358L413.053,124.358L413.053,167.331ZM401.414,177.179L401.414,114.51L428.809,114.51C435.612,114.51 441.58,115.824 446.714,118.449C451.847,121.076 455.847,124.716 458.711,129.372C461.575,134.027 463.009,139.519 463.009,145.845C463.009,152.112 461.575,157.588 458.711,162.273C455.847,166.959 451.847,170.614 446.714,173.24C441.58,175.867 435.612,177.179 428.809,177.179L401.414,177.179Z" style="fill:white;fill-rule:nonzero;"/>
        <path d="M487.002,167.421L487.002,150.142L517.262,150.142L517.262,140.563L487.002,140.563L487.002,124.268L521.111,124.268L521.111,114.51L475.363,114.51L475.363,177.179L522.364,177.179L522.364,167.421L487.002,167.421Z" style="fill:white;fill-rule:nonzero;"/>
    </g>
</svg>
