<?xml version="1.0" encoding="UTF-8" standalone="no"?>
<!DOCTYPE svg PUBLIC "-//W3C//DTD SVG 1.1//EN" "http://www.w3.org/Graphics/SVG/1.1/DTD/svg11.dtd">
<svg width="100%" height="100%" viewBox="0 0 700 98" version="1.1" xmlns="http://www.w3.org/2000/svg" xmlns:xlink="http://www.w3.org/1999/xlink" xml:space="preserve" xmlns:serif="http://www.serif.com/" style="fill-rule:evenodd;clip-rule:evenodd;stroke-linejoin:round;stroke-miterlimit:2;">
    <g transform="matrix(1.03923,0,0,1.04151,0,-0.210381)">
        <path d="M26.463,57.679L44.523,15.472L62.649,57.679C62.649,57.679 55.341,51.55 44.551,51.55C33.792,51.55 26.463,57.679 26.463,57.679ZM73.37,82.641L89.387,82.641L52.171,0.202L37.097,0.202L0,82.641L15.781,82.641L15.829,82.53C20.752,71.024 32.061,63.562 44.575,63.562C57.075,63.562 68.373,71.006 73.305,82.491L73.37,82.641Z" style="fill:white;fill-rule:nonzero;"/>
    </g>
    <g transform="matrix(1.03923,0,0,1.04151,0,-0.210381)">
        <path d="M373.959,57.679L392.02,15.472L410.146,57.679C410.146,57.679 402.838,51.55 392.048,51.55C381.289,51.55 373.959,57.679 373.959,57.679ZM420.867,82.641L436.884,82.641L399.668,0.202L384.594,0.202L347.496,82.641L363.278,82.641L363.326,82.53C368.249,71.024 379.558,63.562 392.072,63.562C404.572,63.562 415.87,71.006 420.802,82.491L420.867,82.641Z" style="fill:white;fill-rule:nonzero;"/>
    </g>
    <g transform="matrix(1.03923,0,0,1.04151,0,-0.210381)">
        <path d="M102.224,82.641L102.224,0.202L117.534,0.202L117.534,69.687L160.637,69.687L160.637,82.641L102.224,82.641Z" style="fill:white;fill-rule:nonzero;"/>
    </g>
    <g transform="matrix(1.03923,0,0,1.04151,0,-0.210381)">
        <path d="M190.433,69.687L210.454,69.687C216.655,69.687 222.014,68.509 226.529,66.154C231.043,63.798 234.537,60.501 237.011,56.261C239.483,52.021 240.72,47.075 240.72,41.422C240.72,35.692 239.483,30.725 237.011,26.524C234.537,22.325 231.043,19.046 226.529,16.69C222.014,14.335 216.655,13.157 210.454,13.157L190.433,13.157L190.433,69.687ZM175.123,82.641L175.123,0.202L211.16,0.202C220.11,0.202 227.961,1.931 234.714,5.384C241.465,8.84 246.727,13.628 250.496,19.752C254.263,25.876 256.148,33.101 256.148,41.422C256.148,49.666 254.263,56.87 250.496,63.033C246.727,69.197 241.465,74.005 234.714,77.46C227.961,80.915 220.11,82.641 211.16,82.641L175.123,82.641Z" style="fill:white;fill-rule:nonzero;"/>
    </g>
    <g transform="matrix(1.03923,0,0,1.04151,0,-0.210381)">
        <path d="M287.71,69.805L287.71,47.075L327.516,47.075L327.516,34.474L287.71,34.474L287.71,13.039L332.58,13.039L332.58,0.202L272.4,0.202L272.4,82.641L334.23,82.641L334.23,69.805L287.71,69.805Z" style="fill:white;fill-rule:nonzero;"/>
    </g>
    <g transform="matrix(1.03923,0,0,1.04151,0,-0.210381)">
        <path d="M486.866,82.575L486.866,79.469L466.472,79.469L466.472,63.352L485.87,63.352L485.87,60.246L466.472,60.246L466.472,44.775L486.866,44.775L486.866,41.669L462.955,41.669L462.955,82.575L486.866,82.575Z" style="fill:white;fill-rule:nonzero;"/>
    </g>
    <g transform="matrix(1.03923,0,0,1.04151,0,-0.210381)">
        <path d="M496.067,82.575L505.268,69.916L505.385,69.916L514.234,82.575L518.161,82.575L507.202,67.22L517.868,52.569L514.117,52.569L505.385,64.818L505.209,64.818L496.653,52.569L492.726,52.569L503.451,67.455L492.316,82.575L496.067,82.575Z" style="fill:white;fill-rule:nonzero;"/>
    </g>
    <g transform="matrix(1.03923,0,0,1.04151,0,-0.210381)">
        <path d="M525.134,94.296L528.475,94.296L528.475,77.769L528.65,77.769C529.471,79.469 530.643,80.758 532.108,81.754C533.573,82.751 535.507,83.278 537.793,83.278C541.661,83.278 544.708,81.93 546.876,79.176C549.045,76.421 550.158,72.553 550.158,67.572C550.158,62.591 549.045,58.723 546.876,55.968C544.708,53.214 541.661,51.866 537.793,51.866C535.507,51.866 533.573,52.335 532.049,53.331C530.526,54.327 529.412,55.675 528.65,57.375L528.475,57.375L528.475,52.569L525.134,52.569L525.134,94.296ZM533.749,79.82C532.694,79.527 531.756,79.058 530.995,78.414C530.233,77.828 529.588,77.125 529.178,76.245C528.709,75.425 528.475,74.487 528.475,73.432L528.475,61.536C528.475,60.539 528.709,59.66 529.178,58.84C529.588,58.019 530.233,57.316 530.995,56.73C531.756,56.144 532.694,55.675 533.749,55.324C534.745,55.031 535.859,54.855 537.031,54.855C540.02,54.855 542.364,55.792 544.063,57.726C545.763,59.66 546.583,62.239 546.583,65.462L546.583,69.682C546.583,72.905 545.763,75.484 544.063,77.418C542.364,79.351 540.02,80.289 537.031,80.289C535.859,80.289 534.745,80.113 533.749,79.82Z" style="fill:white;fill-rule:nonzero;"/>
    </g>
    <g transform="matrix(1.03923,0,0,1.04151,0,-0.210381)">
        <path d="M566.743,82.575L566.743,79.703L562.113,79.703L562.113,39.207L558.773,39.207L558.773,78.941C558.773,80.055 559.066,80.934 559.71,81.578C560.355,82.223 561.234,82.575 562.465,82.575L566.743,82.575Z" style="fill:white;fill-rule:nonzero;"/>
    </g>
    <g transform="matrix(1.03923,0,0,1.04151,0,-0.210381)">
        <path d="M590.301,82.223C591.883,81.52 593.29,80.465 594.403,79.117C595.517,77.769 596.396,76.128 597.041,74.194C597.685,72.26 597.978,70.033 597.978,67.572C597.978,65.111 597.685,62.884 597.041,60.95C596.396,59.016 595.517,57.375 594.403,56.027C593.29,54.679 591.883,53.683 590.301,52.921C588.719,52.217 586.902,51.866 584.91,51.866C582.917,51.866 581.1,52.217 579.518,52.921C577.936,53.683 576.529,54.679 575.416,56.027C574.302,57.375 573.423,59.016 572.778,60.95C572.134,62.884 571.841,65.111 571.841,67.572C571.841,70.033 572.134,72.26 572.778,74.194C573.423,76.128 574.302,77.769 575.416,79.117C576.529,80.465 577.936,81.52 579.518,82.223C581.1,82.926 582.917,83.278 584.91,83.278C586.902,83.278 588.719,82.926 590.301,82.223ZM577.994,77.476C576.295,75.659 575.416,72.964 575.416,69.447L575.416,65.697C575.416,62.122 576.295,59.426 577.994,57.609C579.694,55.792 581.979,54.855 584.91,54.855C587.84,54.855 590.184,55.792 591.883,57.609C593.583,59.484 594.403,62.18 594.403,65.697L594.403,69.447C594.403,73.022 593.583,75.718 591.883,77.535C590.184,79.351 587.84,80.289 584.91,80.289C581.979,80.289 579.694,79.351 577.994,77.476Z" style="fill:white;fill-rule:nonzero;"/>
    </g>
    <g transform="matrix(1.03923,0,0,1.04151,0,-0.210381)">
        <path d="M609.816,82.575L609.816,62.063C609.816,60.129 610.637,58.605 612.219,57.492C613.801,56.378 615.853,55.851 618.373,55.851L621.01,55.851L621.01,52.569L619.017,52.569C616.439,52.569 614.446,53.097 613.04,54.21C611.633,55.324 610.637,56.554 610.051,57.961L609.816,57.961L609.816,52.569L606.476,52.569L606.476,82.575L609.816,82.575Z" style="fill:white;fill-rule:nonzero;"/>
    </g>
    <g transform="matrix(1.03923,0,0,1.04151,0,-0.210381)">
        <path d="M645.272,81.285C647.265,79.996 648.73,78.238 649.668,76.011L647.206,74.37C645.507,78.414 642.518,80.406 638.122,80.406C636.599,80.406 635.251,80.113 634.02,79.586C632.789,79.058 631.793,78.355 630.973,77.417C630.094,76.48 629.449,75.366 629.039,74.018C628.57,72.729 628.335,71.323 628.335,69.74L628.335,68.275L650.547,68.275L650.547,66.693C650.547,64.466 650.254,62.473 649.668,60.657C649.023,58.84 648.202,57.257 647.089,55.968C645.975,54.679 644.686,53.683 643.104,52.979C641.522,52.217 639.822,51.866 637.888,51.866C635.895,51.866 634.079,52.217 632.496,52.921C630.914,53.683 629.508,54.679 628.394,56.027C627.222,57.375 626.343,59.016 625.757,60.95C625.112,62.884 624.819,65.111 624.819,67.572C624.819,70.033 625.112,72.26 625.757,74.194C626.343,76.128 627.222,77.769 628.394,79.117C629.508,80.465 630.914,81.52 632.555,82.223C634.137,82.926 635.954,83.278 637.947,83.278C640.818,83.278 643.221,82.633 645.272,81.285ZM641.58,55.499C642.694,56.027 643.631,56.73 644.452,57.609C645.214,58.488 645.858,59.602 646.268,60.891C646.679,62.239 646.913,63.645 646.913,65.228L646.913,65.697L628.335,65.697L628.335,65.404C628.335,63.821 628.57,62.415 629.039,61.067C629.449,59.777 630.094,58.664 630.973,57.726C631.793,56.789 632.789,56.027 633.961,55.499C635.134,54.972 636.423,54.737 637.888,54.737C639.236,54.737 640.467,54.972 641.58,55.499Z" style="fill:white;fill-rule:nonzero;"/>
    </g>
    <g transform="matrix(1.03923,0,0,1.04151,0,-0.210381)">
        <path d="M662.385,82.575L662.385,62.063C662.385,60.129 663.205,58.605 664.788,57.492C666.37,56.378 668.421,55.851 670.941,55.851L673.578,55.851L673.578,52.569L671.586,52.569C669.007,52.569 667.015,53.097 665.608,54.21C664.202,55.324 663.205,56.554 662.619,57.961L662.385,57.961L662.385,52.569L659.044,52.569L659.044,82.575L662.385,82.575Z" style="fill:white;fill-rule:nonzero;"/>
    </g>
</svg>
