<?xml version="1.0" encoding="UTF-8" standalone="no"?>
<!DOCTYPE svg PUBLIC "-//W3C//DTD SVG 1.1//EN" "http://www.w3.org/Graphics/SVG/1.1/DTD/svg11.dtd">
<svg width="100%" height="100%" viewBox="0 0 148 28" version="1.1" xmlns="http://www.w3.org/2000/svg" xmlns:xlink="http://www.w3.org/1999/xlink" xml:space="preserve" xmlns:serif="http://www.serif.com/" style="fill-rule:evenodd;clip-rule:evenodd;stroke-linejoin:round;stroke-miterlimit:2;">
    <g transform="matrix(0.338763,0,0,0.339649,-42.5591,-33.3593)">
        <path d="M152.094,155.693L170.154,113.486L188.28,155.693C188.28,155.693 180.973,149.564 170.183,149.564C159.423,149.564 152.094,155.693 152.094,155.693ZM199.001,180.655L215.019,180.655L177.803,98.217L162.729,98.217L125.631,180.655L141.412,180.655L141.46,180.544C146.384,169.038 157.692,161.577 170.207,161.577C182.706,161.577 194.004,169.02 198.937,180.505L199.001,180.655Z" style="fill:white;fill-rule:nonzero;"/>
        <path d="M499.591,155.693L517.65,113.486L535.777,155.693C535.777,155.693 528.469,149.564 517.679,149.564C506.92,149.564 499.591,155.693 499.591,155.693ZM546.498,180.655L562.515,180.655L525.299,98.217L510.225,98.217L473.127,180.655L488.909,180.655L488.957,180.544C493.88,169.038 505.188,161.577 517.703,161.577C530.202,161.577 541.501,169.02 546.434,180.505L546.498,180.655Z" style="fill:white;fill-rule:nonzero;"/>
        <path d="M227.854,180.655L227.854,98.217L243.165,98.217L243.165,167.701L286.269,167.701L286.269,180.655L227.854,180.655Z" style="fill:white;fill-rule:nonzero;"/>
        <path d="M316.063,167.701L336.085,167.701C342.286,167.701 347.645,166.523 352.16,164.168C356.674,161.812 360.168,158.515 362.642,154.275C365.114,150.035 366.351,145.089 366.351,139.436C366.351,133.706 365.114,128.739 362.642,124.538C360.168,120.339 356.674,117.06 352.16,114.704C347.645,112.349 342.286,111.171 336.085,111.171L316.063,111.171L316.063,167.701ZM300.754,180.655L300.754,98.217L336.791,98.217C345.741,98.217 353.592,99.945 360.345,103.398C367.096,106.854 372.357,111.642 376.127,117.767C379.895,123.89 381.779,131.115 381.779,139.436C381.779,147.68 379.895,154.884 376.127,161.047C372.357,167.211 367.096,172.019 360.345,175.474C353.592,178.929 345.741,180.655 336.791,180.655L300.754,180.655Z" style="fill:white;fill-rule:nonzero;"/>
        <path d="M413.342,167.819L413.342,145.089L453.147,145.089L453.147,132.488L413.342,132.488L413.342,111.053L458.211,111.053L458.211,98.217L398.031,98.217L398.031,180.655L459.86,180.655L459.86,167.819L413.342,167.819Z" style="fill:white;fill-rule:nonzero;"/>
    </g>
</svg>
